<svg id="svg" version="1.1" xmlns="http://www.w3.org/2000/svg" xmlns:xlink="http://www.w3.org/1999/xlink" width="400" height="128.97196261682242" viewBox="0, 0, 400,128.97196261682242"><g id="svgg"><path id="path0" d="M79.667 26.956 C 79.431 27.047,77.138 28.745,76.417 29.362 C 76.233 29.519,75.209 30.308,74.140 31.115 C 72.089 32.664,68.302 35.549,64.934 38.128 C 63.825 38.978,61.792 40.529,60.417 41.575 C 59.042 42.620,56.979 44.201,55.833 45.087 C 53.018 47.265,50.793 48.963,49.832 49.667 C 49.393 49.987,47.958 51.080,46.642 52.095 C 45.327 53.109,43.612 54.427,42.833 55.024 C 42.054 55.620,40.404 56.886,39.167 57.836 C 35.092 60.964,32.456 62.975,29.563 65.160 C 27.756 66.526,26.672 67.457,26.607 67.700 C 26.551 67.911,26.504 78.143,26.502 90.438 C 26.500 114.284,26.476 113.596,27.264 112.862 C 28.109 112.075,31.826 109.485,34.417 107.878 C 38.070 105.612,44.947 102.289,49.500 100.589 C 50.455 100.232,51.561 99.803,51.917 99.651 C 52.274 99.498,54.221 98.867,56.917 98.031 C 59.502 97.228,63.262 96.238,64.917 95.923 C 65.742 95.766,66.754 95.571,67.167 95.488 C 67.964 95.328,69.695 95.100,72.417 94.797 C 74.592 94.555,85.865 94.553,88.333 94.795 C 91.629 95.118,94.685 95.482,96.417 95.758 C 97.333 95.904,98.533 96.089,99.083 96.168 C 99.633 96.247,100.646 96.431,101.333 96.577 C 102.021 96.723,103.146 96.949,103.833 97.078 C 104.521 97.208,105.608 97.429,106.250 97.569 C 107.286 97.795,107.862 97.930,110.167 98.484 C 110.487 98.561,111.330 98.784,112.039 98.979 C 113.475 99.374,113.833 99.411,113.833 99.167 C 113.833 99.075,113.745 99.000,113.638 99.000 C 113.531 99.000,113.325 98.896,113.180 98.769 C 112.872 98.499,108.245 96.128,106.667 95.431 C 106.071 95.168,105.283 94.820,104.917 94.658 C 103.994 94.250,100.659 92.952,99.250 92.453 C 97.137 91.705,96.602 91.529,94.833 91.006 C 93.871 90.721,92.858 90.420,92.583 90.337 C 90.908 89.830,86.237 88.837,83.667 88.440 C 79.382 87.780,78.903 87.750,72.583 87.750 C 65.626 87.750,64.342 87.845,58.833 88.770 C 55.605 89.312,54.974 89.440,52.333 90.086 C 51.737 90.232,50.987 90.412,50.667 90.486 C 50.090 90.619,48.426 91.142,46.000 91.954 C 44.187 92.561,41.357 93.738,39.235 94.769 C 38.218 95.263,37.300 95.667,37.193 95.667 C 37.049 95.667,37.000 92.848,37.000 84.448 L 37.000 73.229 37.458 72.808 C 37.710 72.577,38.779 71.723,39.833 70.911 C 41.638 69.521,42.385 68.938,45.125 66.781 C 45.744 66.294,46.820 65.450,47.516 64.906 C 48.213 64.362,49.900 63.037,51.266 61.963 C 52.632 60.888,54.575 59.363,55.583 58.573 C 56.592 57.783,57.642 56.960,57.917 56.743 C 58.192 56.526,59.504 55.505,60.833 54.472 C 62.163 53.440,64.156 51.880,65.262 51.006 C 66.369 50.132,67.944 48.897,68.762 48.263 C 69.581 47.628,70.737 46.722,71.333 46.250 C 71.929 45.778,73.458 44.572,74.732 43.571 C 79.616 39.730,79.406 39.847,80.168 40.549 C 80.397 40.759,81.116 41.340,81.768 41.840 C 82.855 42.675,84.224 43.773,90.930 49.188 C 92.220 50.231,93.608 51.351,94.013 51.678 C 96.012 53.293,99.776 56.303,100.312 56.716 C 100.645 56.972,101.067 57.310,101.251 57.466 C 101.435 57.622,102.710 58.644,104.085 59.736 C 105.459 60.828,106.921 61.996,107.333 62.331 C 107.746 62.666,108.683 63.420,109.417 64.006 C 110.150 64.593,110.787 65.120,110.833 65.177 C 110.879 65.234,111.258 65.539,111.675 65.855 C 112.092 66.171,113.217 67.062,114.175 67.836 C 115.133 68.609,115.992 69.300,116.083 69.372 C 116.175 69.444,117.196 70.270,118.353 71.209 C 119.510 72.148,121.647 73.864,123.103 75.023 C 124.559 76.181,128.332 79.200,131.488 81.731 L 137.225 86.333 145.853 86.333 C 150.722 86.333,154.520 86.269,154.572 86.185 C 154.679 86.011,153.968 85.365,151.904 83.760 C 151.086 83.123,149.329 81.739,148.000 80.684 C 146.671 79.629,144.721 78.083,143.667 77.249 C 140.965 75.111,137.420 72.298,133.889 69.490 C 132.224 68.167,130.097 66.483,129.164 65.750 C 128.230 65.017,127.331 64.304,127.165 64.167 C 127.000 64.029,125.724 63.017,124.329 61.917 C 120.787 59.122,119.034 57.729,118.198 57.040 C 117.802 56.714,117.115 56.178,116.671 55.849 C 115.834 55.228,109.094 49.889,106.356 47.677 C 105.498 46.984,104.211 45.967,103.497 45.417 C 102.380 44.556,100.407 42.987,96.103 39.536 C 95.564 39.104,95.039 38.673,94.936 38.578 C 94.834 38.483,94.487 38.222,94.167 37.997 C 93.846 37.772,93.433 37.460,93.250 37.305 C 93.067 37.149,91.904 36.223,90.667 35.248 C 89.429 34.274,87.967 33.112,87.417 32.668 C 84.232 30.094,80.084 26.835,80.007 26.846 C 79.957 26.854,79.804 26.903,79.667 26.956 M157.492 34.575 C 156.852 35.214,157.492 37.249,158.371 37.372 C 158.671 37.415,159.517 37.620,160.250 37.829 C 160.983 38.038,161.846 38.261,162.167 38.325 C 163.250 38.540,163.727 38.871,163.862 39.500 C 163.931 39.821,163.971 49.582,163.952 61.191 C 163.912 84.879,164.029 82.839,162.697 83.077 C 162.360 83.137,161.858 83.253,161.583 83.333 C 161.308 83.414,160.446 83.637,159.667 83.831 C 157.120 84.462,157.178 84.397,157.471 86.324 L 157.583 87.064 179.089 87.102 C 198.952 87.137,200.621 87.118,200.953 86.861 C 201.334 86.566,201.380 86.186,201.830 79.667 C 201.915 78.429,202.072 76.592,202.179 75.583 C 202.486 72.681,202.457 72.639,200.451 72.997 C 199.313 73.201,199.313 73.201,198.735 74.142 C 198.196 75.019,195.641 79.472,194.705 81.167 C 193.891 82.638,195.014 82.500,183.894 82.500 L 174.006 82.500 173.915 82.125 C 173.865 81.919,173.845 77.400,173.871 72.083 L 173.917 62.417 180.766 62.417 C 186.071 62.417,187.674 62.465,187.872 62.629 C 188.111 62.828,188.632 64.272,189.496 67.125 C 189.752 67.973,189.944 68.339,190.139 68.352 C 190.844 68.399,192.758 68.289,193.037 68.186 C 193.442 68.036,193.539 52.233,193.136 51.977 C 192.830 51.783,191.207 51.801,190.468 52.006 C 189.810 52.189,189.703 52.429,188.578 56.250 C 188.072 57.969,188.715 57.834,180.826 57.878 L 173.917 57.917 173.871 48.833 C 173.845 43.837,173.865 39.581,173.915 39.375 L 174.006 39.000 183.416 39.000 L 192.825 39.000 193.057 39.458 C 193.184 39.710,193.457 40.479,193.662 41.167 C 194.254 43.149,195.484 46.825,195.673 47.178 C 195.988 47.768,198.440 47.430,198.575 46.778 C 198.646 46.436,198.994 44.878,199.327 43.417 C 199.410 43.050,199.604 42.188,199.757 41.500 C 200.161 39.691,200.454 38.400,200.744 37.156 C 201.070 35.763,201.070 34.932,200.744 34.661 C 200.425 34.397,157.755 34.312,157.492 34.575 M371.083 38.764 C 368.709 38.901,365.029 39.407,363.333 39.831 C 362.319 40.084,359.454 41.007,358.840 41.278 C 352.614 44.028,350.179 47.043,350.179 52.000 C 350.179 58.447,354.416 62.200,366.083 66.086 C 367.913 66.695,370.993 67.781,372.000 68.172 C 372.504 68.368,373.065 68.573,373.247 68.627 C 376.648 69.644,380.021 72.666,380.506 75.129 C 381.843 81.923,372.305 85.669,360.167 83.117 C 358.407 82.747,358.488 82.852,357.420 79.548 C 356.893 77.917,356.283 76.094,356.064 75.496 C 355.846 74.899,355.667 74.288,355.667 74.140 C 355.667 73.370,355.143 73.125,353.772 73.253 C 352.282 73.393,352.295 73.377,351.917 75.417 C 351.505 77.644,351.136 79.590,350.890 80.833 C 350.755 81.521,350.543 82.661,350.420 83.367 C 350.297 84.073,350.145 84.734,350.082 84.835 C 349.630 85.567,350.350 86.066,352.447 86.474 C 374.590 90.781,391.500 85.341,391.500 73.911 C 391.500 67.587,387.535 64.245,375.083 60.077 C 373.250 59.463,371.375 58.812,370.917 58.631 C 370.458 58.450,369.783 58.186,369.417 58.045 C 363.534 55.781,361.082 53.385,361.099 49.917 C 361.129 43.994,368.661 41.311,379.542 43.347 C 380.851 43.592,380.987 43.719,381.490 45.167 C 381.697 45.762,381.928 46.400,382.004 46.583 C 382.080 46.767,382.494 47.967,382.925 49.250 C 383.905 52.168,383.788 52.029,385.147 51.899 C 386.607 51.760,386.687 51.653,387.316 49.000 C 387.609 47.762,387.953 46.375,388.081 45.917 C 388.208 45.458,388.434 44.558,388.583 43.917 C 388.731 43.275,388.917 42.525,388.996 42.250 C 389.665 39.919,389.566 39.879,380.917 39.009 C 379.126 38.829,372.726 38.670,371.083 38.764 M317.250 39.010 C 316.883 39.085,316.185 39.152,315.697 39.157 C 314.646 39.168,314.273 39.340,313.956 39.957 C 313.459 40.927,312.452 42.758,312.329 42.917 C 312.258 43.008,311.846 43.758,311.414 44.583 C 310.982 45.408,310.571 46.158,310.502 46.250 C 310.432 46.342,310.114 46.904,309.794 47.500 C 309.474 48.096,309.042 48.883,308.833 49.250 C 308.625 49.617,308.231 50.329,307.958 50.833 C 307.029 52.547,306.448 53.582,306.087 54.167 C 305.888 54.487,305.367 55.425,304.929 56.250 C 304.490 57.075,304.074 57.825,304.004 57.917 C 303.933 58.008,303.614 58.571,303.293 59.167 C 302.973 59.762,302.514 60.606,302.272 61.042 C 302.031 61.477,301.636 62.190,301.395 62.625 C 301.153 63.060,300.618 64.017,300.204 64.750 C 299.791 65.483,299.275 66.408,299.057 66.805 C 298.840 67.202,298.428 67.952,298.141 68.471 C 297.855 68.991,297.396 69.829,297.121 70.333 C 296.847 70.837,296.567 71.325,296.500 71.417 C 296.433 71.508,296.153 71.996,295.879 72.500 C 295.604 73.004,295.153 73.829,294.876 74.333 C 294.599 74.837,294.148 75.662,293.875 76.167 C 293.602 76.671,293.208 77.383,293.000 77.750 C 292.792 78.117,292.307 78.985,291.922 79.679 C 290.543 82.165,289.073 83.500,287.715 83.500 C 287.538 83.500,287.024 83.601,286.572 83.725 C 286.120 83.849,285.169 84.086,284.458 84.253 L 283.167 84.556 283.167 85.539 C 283.167 87.299,282.093 87.132,293.416 87.134 C 304.707 87.136,303.724 87.285,303.491 85.600 C 303.318 84.347,303.588 84.489,299.917 83.720 C 298.067 83.332,297.610 83.083,297.745 82.536 C 297.954 81.688,303.728 70.360,304.070 70.128 C 304.169 70.060,308.712 70.005,314.167 70.005 C 319.621 70.005,324.167 70.060,324.270 70.128 C 324.476 70.262,325.494 72.342,327.674 77.083 C 327.969 77.725,328.492 78.851,328.835 79.585 C 329.495 80.995,330.000 82.362,330.000 82.735 C 330.000 83.227,329.863 83.274,325.625 84.265 L 324.333 84.567 324.333 85.544 C 324.333 87.321,323.021 87.147,336.292 87.133 C 344.639 87.125,347.951 87.069,348.039 86.936 C 348.185 86.714,348.202 85.399,348.065 84.888 C 347.985 84.591,347.739 84.477,346.692 84.253 C 341.465 83.133,340.917 82.796,339.452 79.797 C 337.291 75.377,334.667 69.954,334.667 69.910 C 334.667 69.881,333.835 68.146,332.819 66.054 C 330.970 62.248,330.503 61.278,328.410 56.917 C 327.795 55.633,326.730 53.421,326.045 52.000 C 325.360 50.579,324.421 48.629,323.960 47.667 C 323.498 46.704,322.345 44.323,321.398 42.375 L 319.675 38.833 318.796 38.852 C 318.312 38.863,317.617 38.934,317.250 39.010 M209.467 39.790 C 209.355 39.925,209.345 40.330,209.439 40.952 C 209.613 42.101,209.738 42.167,213.379 43.007 C 215.223 43.433,215.715 43.608,215.879 43.894 C 216.183 44.424,216.176 82.504,215.872 82.870 C 215.664 83.121,215.317 83.230,213.167 83.721 C 208.836 84.710,209.064 84.524,209.682 86.583 L 209.832 87.083 231.660 87.083 C 252.225 87.083,253.505 87.066,253.780 86.792 C 254.079 86.492,254.066 86.611,254.653 78.917 C 254.744 77.725,254.871 76.082,254.936 75.266 L 255.053 73.781 253.792 73.877 C 251.881 74.021,252.226 73.659,248.679 79.250 C 247.749 80.717,246.809 82.124,246.591 82.376 L 246.194 82.836 236.224 82.793 L 226.253 82.750 226.146 82.250 C 226.003 81.578,225.994 45.284,226.137 44.342 L 226.250 43.601 227.250 43.326 C 227.800 43.174,228.850 42.922,229.583 42.764 C 230.317 42.607,231.320 42.364,231.814 42.224 L 232.711 41.969 232.604 40.950 C 232.546 40.390,232.424 39.858,232.335 39.768 C 232.072 39.506,209.685 39.528,209.467 39.790 M259.386 39.769 C 259.347 39.871,259.338 40.393,259.366 40.930 L 259.417 41.907 260.167 42.188 C 260.579 42.342,261.479 42.593,262.167 42.746 C 264.637 43.296,265.504 43.554,265.708 43.800 C 265.932 44.069,266.127 80.335,265.915 82.115 C 265.798 83.099,265.751 83.124,262.917 83.748 C 262.183 83.910,261.096 84.166,260.500 84.318 L 259.417 84.594 259.458 85.655 C 259.522 87.276,258.421 87.136,271.093 87.136 C 283.837 87.137,282.717 87.280,282.506 85.684 C 282.366 84.627,282.185 84.460,280.881 84.187 C 279.750 83.951,278.048 83.549,277.029 83.278 C 276.632 83.173,276.219 82.980,276.112 82.851 C 275.889 82.582,275.820 44.761,276.041 43.972 C 276.169 43.516,276.391 43.426,278.417 43.007 C 282.943 42.071,282.956 42.059,282.261 39.868 C 282.149 39.515,259.521 39.418,259.386 39.769 M315.330 50.705 C 315.334 50.850,316.102 52.510,317.769 55.976 C 318.446 57.383,319.000 58.562,319.000 58.595 C 319.000 58.628,319.403 59.501,319.896 60.536 C 321.474 63.850,321.877 64.740,322.012 65.208 L 322.143 65.667 314.405 65.667 L 306.667 65.667 306.667 65.283 C 306.667 65.073,306.732 64.829,306.811 64.742 C 306.891 64.655,307.594 63.346,308.373 61.833 C 309.153 60.321,310.127 58.446,310.538 57.667 C 311.178 56.456,311.960 54.960,313.720 51.583 C 313.911 51.217,314.214 50.664,314.393 50.355 L 314.718 49.793 315.022 50.188 C 315.189 50.406,315.328 50.638,315.330 50.705 M164.917 94.654 C 159.319 96.248,156.441 100.841,156.450 108.167 C 156.459 114.946,158.845 119.149,163.750 121.027 C 164.956 121.489,168.577 121.588,169.750 121.191 C 172.719 120.187,174.331 118.741,173.596 117.740 C 173.362 117.421,173.345 117.421,172.471 117.732 C 166.847 119.727,163.253 118.117,160.977 112.583 C 159.604 109.246,160.236 102.816,162.264 99.477 C 163.704 97.107,167.478 95.857,169.738 97.003 C 170.259 97.267,170.303 97.371,170.741 99.417 C 171.270 101.885,171.208 101.745,171.786 101.801 C 172.483 101.870,172.601 101.619,172.927 99.389 C 173.537 95.221,173.533 95.088,172.787 94.922 C 172.583 94.876,171.906 94.725,171.281 94.586 C 169.719 94.238,166.248 94.275,164.917 94.654 M348.030 97.642 C 347.705 98.137,347.883 98.452,348.766 98.951 L 349.417 99.319 349.525 100.701 C 349.671 102.561,349.694 114.270,349.557 116.822 L 349.447 118.863 348.716 119.219 C 348.036 119.549,347.988 119.615,348.034 120.162 L 348.083 120.750 351.106 120.795 C 353.751 120.835,354.141 120.807,354.231 120.574 C 354.433 120.046,354.151 119.543,353.483 119.242 C 352.559 118.826,352.583 119.099,352.583 109.083 C 352.583 99.063,352.559 99.341,353.487 98.923 C 353.850 98.759,354.189 98.516,354.240 98.383 C 354.370 98.043,354.169 97.334,353.940 97.328 C 349.147 97.200,348.289 97.246,348.030 97.642 M181.917 100.784 C 173.938 101.859,172.199 117.191,179.667 120.613 C 185.717 123.384,191.620 119.165,192.084 111.737 C 192.563 104.062,188.675 99.873,181.917 100.784 M312.518 100.847 C 304.069 102.506,303.382 118.533,311.654 120.996 C 318.068 122.906,322.889 118.478,322.899 110.667 C 322.909 103.284,318.989 99.576,312.518 100.847 M381.583 100.849 C 371.547 101.591,370.022 118.432,379.750 121.101 C 382.618 121.888,387.782 120.243,387.237 118.716 C 387.036 118.154,386.780 118.148,385.000 118.663 C 380.053 120.093,376.588 116.761,376.597 110.583 C 376.605 105.286,378.755 102.457,382.588 102.703 C 384.165 102.805,384.358 102.978,384.732 104.623 C 385.176 106.573,385.139 106.500,385.668 106.500 C 386.266 106.500,386.336 106.385,386.508 105.112 C 386.585 104.546,386.730 103.607,386.830 103.026 C 386.930 102.444,386.971 101.838,386.921 101.679 C 386.740 101.108,383.946 100.674,381.583 100.849 M215.167 101.030 C 214.938 101.126,214.450 101.326,214.083 101.475 C 210.994 102.729,210.056 107.464,212.373 110.103 C 212.829 110.622,214.666 112.000,214.902 112.000 C 215.230 112.000,217.898 113.774,218.227 114.211 C 219.957 116.503,218.554 119.334,215.688 119.333 C 213.862 119.333,213.553 118.998,213.142 116.583 C 212.573 113.234,211.183 115.200,211.170 119.373 C 211.166 120.555,211.517 120.760,214.044 121.048 C 219.139 121.629,222.075 119.538,222.071 115.333 C 222.068 112.491,221.295 111.421,217.917 109.582 C 214.984 107.985,214.417 107.323,214.417 105.496 C 214.417 103.502,215.257 102.670,217.273 102.668 C 218.869 102.666,219.667 103.741,219.667 105.893 C 219.667 106.252,220.175 106.489,220.602 106.328 C 220.886 106.220,220.976 106.000,221.068 105.182 C 221.131 104.626,221.248 103.963,221.327 103.710 C 221.553 102.993,221.663 101.764,221.523 101.537 C 221.157 100.945,216.298 100.557,215.167 101.030 M275.000 101.098 C 272.070 102.002,270.056 104.116,268.900 107.500 C 268.411 108.929,268.451 113.476,268.966 115.068 C 270.768 120.639,276.486 123.018,281.214 120.165 C 282.637 119.306,282.848 117.614,281.447 118.301 C 280.116 118.952,277.896 119.147,276.489 118.735 C 269.537 116.702,270.217 102.740,277.271 102.676 C 279.323 102.657,279.573 102.869,279.992 104.971 C 280.231 106.172,280.431 106.500,280.927 106.500 C 281.499 106.500,282.032 104.449,282.072 102.089 L 282.083 101.428 281.000 101.137 C 279.647 100.773,276.126 100.750,275.000 101.098 M240.167 101.108 C 238.838 101.139,237.581 101.204,237.375 101.252 C 236.602 101.433,237.066 102.308,238.131 102.679 C 238.859 102.933,238.853 102.842,238.798 111.417 L 238.750 118.917 237.949 119.314 C 237.222 119.674,237.153 119.758,237.199 120.230 L 237.250 120.750 240.292 120.795 L 243.333 120.841 243.333 120.272 C 243.333 119.765,243.262 119.674,242.675 119.439 C 241.710 119.053,241.667 118.878,241.667 115.347 L 241.667 112.173 242.098 112.065 C 242.699 111.914,242.984 112.253,244.001 114.333 C 247.179 120.830,247.329 121.000,249.896 121.000 C 251.206 121.000,251.833 120.804,251.833 120.394 C 251.833 120.081,251.400 119.648,250.790 119.353 C 249.937 118.940,249.234 117.920,247.675 114.833 C 247.096 113.688,246.568 112.675,246.502 112.583 C 245.951 111.820,246.012 111.358,246.720 110.940 C 250.134 108.923,250.271 103.298,246.945 101.672 C 245.778 101.100,244.615 101.004,240.167 101.108 M282.972 101.333 C 282.632 101.622,282.865 106.085,283.248 106.609 C 283.710 107.241,284.261 106.451,284.836 104.333 C 284.948 103.921,285.067 103.487,285.100 103.369 C 285.146 103.209,285.572 103.167,286.789 103.202 L 288.417 103.250 288.460 111.043 L 288.503 118.835 287.543 119.293 C 286.689 119.699,286.583 119.805,286.583 120.250 L 286.583 120.750 290.000 120.750 L 293.417 120.750 293.469 120.207 C 293.508 119.800,293.446 119.641,293.219 119.571 C 293.053 119.519,292.597 119.333,292.207 119.157 L 291.497 118.836 291.540 111.043 L 291.583 103.250 293.116 103.202 C 294.892 103.147,294.855 103.118,295.167 104.837 C 295.601 107.225,296.568 107.545,296.862 105.397 C 297.249 102.562,297.346 101.607,297.267 101.401 C 297.130 101.043,283.391 100.978,282.972 101.333 M193.435 101.429 C 193.280 101.833,193.635 102.337,194.257 102.597 C 195.185 102.985,195.173 102.869,195.127 111.200 L 195.083 118.917 194.292 119.309 C 193.578 119.663,193.500 119.758,193.500 120.272 L 193.500 120.842 196.125 120.796 L 198.750 120.750 198.800 120.232 C 198.844 119.782,198.779 119.686,198.300 119.496 C 197.097 119.020,197.167 119.417,197.167 112.984 C 197.167 109.752,197.233 107.146,197.316 107.094 C 197.398 107.043,198.332 108.295,199.392 109.876 C 200.452 111.457,201.679 113.277,202.118 113.920 C 202.557 114.564,203.771 116.386,204.816 117.970 L 206.714 120.850 207.482 120.800 L 208.250 120.750 208.338 111.833 C 208.387 106.929,208.443 102.904,208.463 102.888 C 208.484 102.872,208.753 102.776,209.063 102.673 C 209.842 102.416,210.167 102.015,209.985 101.537 C 209.843 101.163,209.810 101.159,207.295 101.204 L 204.750 101.250 204.750 101.750 C 204.750 102.173,204.856 102.299,205.438 102.570 C 206.307 102.974,206.333 103.170,206.333 109.358 C 206.333 113.183,206.298 113.833,206.089 113.833 C 205.866 113.833,203.614 110.558,198.353 102.583 C 197.364 101.084,197.548 101.172,195.393 101.169 C 193.856 101.167,193.518 101.212,193.435 101.429 M221.947 101.399 C 221.697 102.050,222.263 106.833,222.590 106.833 C 223.062 106.833,223.369 106.338,223.836 104.825 L 224.351 103.155 225.967 103.202 L 227.583 103.250 227.627 111.050 L 227.670 118.850 226.768 119.263 C 225.811 119.701,225.634 119.921,225.781 120.484 C 225.870 120.824,225.960 120.833,229.279 120.833 L 232.687 120.833 232.635 120.232 C 232.588 119.680,232.516 119.606,231.763 119.321 C 230.613 118.886,230.672 119.320,230.671 111.250 C 230.671 102.288,230.480 103.167,232.433 103.167 L 233.994 103.167 234.090 103.625 C 234.142 103.877,234.252 104.383,234.334 104.750 C 234.416 105.117,234.528 105.702,234.584 106.052 C 234.711 106.849,235.647 106.934,235.860 106.167 C 236.094 105.323,236.407 103.057,236.412 102.167 L 236.417 101.250 229.227 101.207 C 223.159 101.170,222.023 101.200,221.947 101.399 M250.834 101.416 C 250.536 101.775,250.999 102.419,251.730 102.660 L 252.305 102.850 252.382 109.050 C 252.475 116.689,252.747 118.070,254.492 119.763 C 256.763 121.966,261.527 121.885,263.628 119.606 C 265.379 117.706,265.526 116.969,265.648 109.467 C 265.717 105.230,265.810 103.123,265.934 102.999 C 266.036 102.898,266.373 102.688,266.684 102.532 C 267.139 102.305,267.250 102.152,267.250 101.750 L 267.250 101.250 264.554 101.204 C 261.898 101.159,261.857 101.164,261.741 101.528 C 261.617 101.920,262.276 102.667,262.747 102.667 C 263.471 102.667,263.500 102.905,263.500 108.751 C 263.500 115.909,263.287 117.134,261.822 118.388 C 260.155 119.815,256.505 119.058,256.060 117.194 C 256.002 116.950,255.871 116.645,255.769 116.516 C 255.642 116.356,255.566 114.172,255.529 109.586 L 255.474 102.889 256.237 102.597 C 256.938 102.330,257.000 102.259,257.000 101.736 L 257.000 101.167 254.020 101.167 C 251.580 101.167,251.003 101.212,250.834 101.416 M298.064 101.407 C 297.877 101.894,298.101 102.258,298.780 102.574 L 299.478 102.898 299.587 104.074 C 299.647 104.721,299.670 108.303,299.640 112.033 C 299.579 119.391,299.620 119.091,298.618 119.432 C 298.156 119.588,298.083 119.691,298.083 120.182 L 298.083 120.750 301.071 120.796 C 302.803 120.822,304.125 120.775,304.217 120.683 C 304.524 120.376,304.176 119.653,303.606 119.415 C 302.536 118.968,302.583 119.361,302.583 110.916 C 302.583 102.829,302.597 102.673,303.312 102.663 C 303.866 102.655,304.389 102.079,304.271 101.606 L 304.160 101.167 301.158 101.167 C 298.698 101.167,298.140 101.210,298.064 101.407 M324.397 101.407 C 324.205 101.907,324.441 102.262,325.208 102.628 L 326.000 103.006 326.000 110.975 L 326.000 118.944 325.625 119.135 C 325.419 119.240,325.044 119.401,324.792 119.492 C 324.410 119.631,324.333 119.756,324.333 120.246 L 324.333 120.833 326.896 120.833 C 330.148 120.833,330.825 120.295,328.833 119.294 L 328.083 118.917 328.035 113.500 C 327.987 108.100,328.044 106.904,328.340 107.087 C 328.425 107.140,329.335 108.436,330.362 109.967 C 331.388 111.498,332.532 113.200,332.905 113.750 C 333.277 114.300,333.657 114.877,333.749 115.033 C 334.498 116.298,337.588 120.701,337.807 120.816 C 338.280 121.063,339.125 120.841,339.233 120.442 C 339.286 120.245,339.330 116.217,339.331 111.491 L 339.333 102.899 340.167 102.547 C 340.859 102.255,341.000 102.123,341.000 101.768 C 341.000 101.193,340.732 101.144,337.917 101.202 L 335.583 101.250 335.583 101.738 C 335.583 102.154,335.701 102.285,336.375 102.621 L 337.167 103.016 337.167 108.424 C 337.167 114.728,337.222 114.591,335.660 112.154 C 335.068 111.230,334.504 110.386,334.407 110.279 C 334.310 110.171,333.736 109.333,333.131 108.417 C 332.526 107.500,331.845 106.487,331.617 106.167 C 331.389 105.846,330.549 104.590,329.751 103.375 L 328.298 101.167 326.394 101.167 C 324.889 101.167,324.470 101.217,324.397 101.407 M355.581 101.338 C 355.326 101.750,355.676 102.301,356.415 102.648 L 357.167 103.002 357.167 110.906 C 357.167 119.511,357.202 119.193,356.234 119.436 C 355.743 119.559,355.442 120.056,355.585 120.506 C 355.737 120.983,360.751 121.016,360.864 120.542 C 361.003 119.960,360.792 119.637,360.069 119.327 L 359.333 119.012 359.333 113.099 C 359.333 109.847,359.396 107.148,359.472 107.101 C 359.548 107.054,360.697 108.643,362.025 110.633 C 369.501 121.830,368.900 121.049,369.907 120.886 L 370.500 120.790 370.500 111.985 C 370.500 105.149,370.547 103.139,370.708 102.998 C 370.823 102.898,371.179 102.688,371.500 102.533 C 371.974 102.303,372.083 102.156,372.083 101.750 L 372.083 101.250 369.500 101.250 L 366.917 101.250 366.917 101.749 C 366.917 102.161,367.031 102.307,367.583 102.593 C 368.464 103.050,368.518 103.453,368.461 109.234 C 368.423 113.096,368.381 113.750,368.167 113.779 C 368.006 113.801,366.419 111.558,363.746 107.532 L 359.576 101.250 357.634 101.203 C 356.367 101.173,355.654 101.219,355.581 101.338 M185.146 102.759 C 188.208 103.669,189.886 109.918,188.495 115.229 C 187.769 118.000,186.462 119.269,184.143 119.454 C 180.330 119.758,178.173 116.583,178.173 110.667 C 178.173 104.343,180.727 101.447,185.146 102.759 M315.822 102.680 C 318.423 103.238,319.738 106.069,319.726 111.083 C 319.713 116.084,318.783 118.355,316.397 119.210 C 311.704 120.892,308.419 116.243,309.163 108.971 C 309.701 103.719,311.729 101.802,315.822 102.680 M244.183 103.089 C 245.591 103.586,246.295 104.948,246.116 106.833 C 245.901 109.108,244.944 110.167,243.104 110.167 C 241.631 110.167,241.667 110.254,241.667 106.605 C 241.667 102.622,241.907 102.286,244.183 103.089 M389.889 117.511 C 388.304 118.525,388.954 121.167,390.788 121.167 C 392.627 121.167,393.098 118.252,391.390 117.438 C 390.667 117.093,390.531 117.099,389.889 117.511 " stroke="none" fill="#003d7e" fill-rule="evenodd"></path><path id="path1" d="M78.944 7.130 C 78.042 7.838,76.805 8.813,76.194 9.298 C 75.583 9.783,74.671 10.494,74.167 10.879 C 73.662 11.264,72.350 12.297,71.250 13.174 C 70.150 14.051,68.612 15.254,67.833 15.847 C 67.054 16.440,65.442 17.697,64.250 18.640 C 59.257 22.591,57.617 23.875,55.167 25.753 C 53.746 26.841,52.171 28.078,51.667 28.502 C 51.163 28.927,50.121 29.756,49.353 30.345 C 48.584 30.934,47.526 31.754,47.001 32.167 C 46.476 32.579,45.305 33.492,44.398 34.196 C 41.516 36.432,37.798 39.344,34.751 41.750 C 33.125 43.033,31.364 44.421,30.837 44.833 C 30.310 45.246,29.258 46.071,28.500 46.667 C 27.742 47.262,26.720 48.059,26.228 48.436 C 25.737 48.814,25.034 49.367,24.667 49.667 C 24.300 49.966,23.594 50.520,23.099 50.897 C 22.605 51.275,21.061 52.483,19.670 53.583 C 18.278 54.683,16.405 56.146,15.508 56.833 C 14.610 57.521,13.435 58.442,12.896 58.880 C 12.357 59.318,10.754 60.581,9.333 61.687 C 7.912 62.793,6.355 64.010,5.871 64.391 C 4.307 65.624,4.056 65.583,13.184 65.583 L 21.280 65.583 22.681 64.502 C 23.453 63.907,24.884 62.782,25.863 62.002 C 28.665 59.769,31.302 57.699,35.163 54.700 C 35.482 54.453,36.007 54.022,36.330 53.743 C 36.653 53.465,37.779 52.566,38.833 51.746 C 39.887 50.926,41.738 49.467,42.945 48.503 C 45.903 46.141,47.650 44.764,49.079 43.667 C 49.735 43.163,51.024 42.150,51.941 41.417 C 52.859 40.683,53.854 39.896,54.152 39.667 C 54.450 39.438,55.081 38.944,55.555 38.570 C 56.029 38.196,57.542 37.002,58.917 35.917 C 60.292 34.832,62.017 33.469,62.750 32.888 C 65.772 30.495,67.869 28.843,69.486 27.583 C 71.067 26.351,71.861 25.725,74.333 23.758 C 80.520 18.837,79.690 19.185,81.610 20.710 C 82.420 21.354,83.683 22.376,84.417 22.982 C 85.150 23.588,85.950 24.233,86.194 24.417 C 86.439 24.600,87.376 25.354,88.278 26.092 C 89.179 26.830,91.304 28.549,93.000 29.912 C 94.696 31.275,96.571 32.788,97.167 33.276 C 98.985 34.762,100.034 35.607,101.167 36.497 C 102.550 37.583,102.823 37.801,103.606 38.448 C 105.839 40.290,110.225 43.832,111.566 44.875 C 112.125 45.311,112.733 45.804,112.917 45.971 C 113.201 46.230,115.358 47.970,117.097 49.344 C 117.379 49.567,118.535 50.500,119.666 51.417 C 120.796 52.333,122.374 53.608,123.171 54.250 C 123.968 54.892,125.732 56.317,127.090 57.417 C 131.823 61.249,132.367 61.666,132.516 61.573 C 132.602 61.521,132.667 58.602,132.667 54.835 L 132.667 48.189 131.875 47.553 C 131.440 47.203,131.008 46.835,130.917 46.735 C 130.825 46.636,129.962 45.924,129.000 45.153 C 128.037 44.382,127.212 43.708,127.167 43.656 C 127.121 43.604,125.938 42.628,124.537 41.489 C 123.137 40.349,121.631 39.117,121.190 38.750 C 120.389 38.084,118.683 36.675,117.156 35.417 C 116.710 35.050,115.874 34.382,115.298 33.933 C 114.722 33.483,114.175 33.032,114.083 32.930 C 113.992 32.828,113.579 32.484,113.167 32.164 C 112.755 31.845,112.268 31.457,112.084 31.304 C 107.881 27.784,103.369 24.070,101.601 22.675 C 101.316 22.451,100.596 21.846,100.000 21.331 C 99.404 20.816,98.204 19.832,97.333 19.144 C 96.462 18.456,95.638 17.785,95.500 17.653 C 95.362 17.520,94.912 17.153,94.500 16.836 C 94.087 16.520,93.188 15.766,92.500 15.162 C 91.813 14.557,90.650 13.591,89.917 13.014 C 89.183 12.438,88.180 11.617,87.687 11.191 C 87.194 10.765,86.407 10.128,85.937 9.776 C 85.468 9.424,84.818 8.899,84.495 8.609 C 82.909 7.193,81.096 5.832,80.803 5.838 C 80.682 5.841,79.846 6.422,78.944 7.130 M69.167 58.109 C 68.543 58.348,68.500 58.641,68.503 62.657 C 68.504 64.836,68.575 66.695,68.663 66.833 C 68.911 67.227,77.342 67.300,77.730 66.913 C 78.041 66.602,78.138 58.810,77.837 58.333 C 77.676 58.078,69.781 57.874,69.167 58.109 M82.167 58.117 C 82.029 58.172,81.862 58.299,81.794 58.400 C 81.616 58.668,81.644 66.540,81.825 66.825 C 81.997 67.098,90.677 67.212,90.944 66.945 C 91.146 66.744,91.206 58.638,91.008 58.333 C 90.841 58.076,82.768 57.879,82.167 58.117 M68.833 70.833 C 68.428 71.239,68.307 78.907,68.700 79.300 C 68.960 79.560,77.197 79.585,77.678 79.327 C 78.126 79.087,78.182 71.206,77.738 70.762 C 77.288 70.312,69.291 70.376,68.833 70.833 M81.867 70.700 C 81.527 71.040,81.587 79.267,81.930 79.399 C 82.369 79.567,90.280 79.512,90.739 79.337 L 91.167 79.175 91.167 75.160 C 91.167 72.711,91.099 71.019,90.994 70.822 C 90.782 70.426,82.255 70.312,81.867 70.700 M121.434 81.097 C 121.379 81.242,121.333 87.159,121.333 94.246 C 121.333 104.932,121.295 107.146,121.108 107.218 C 120.983 107.265,120.021 106.880,118.970 106.360 C 113.997 103.906,109.339 102.251,103.917 101.011 C 96.992 99.427,92.632 98.960,84.583 98.941 C 77.201 98.923,74.944 99.164,68.000 100.712 C 62.822 101.866,55.148 104.894,49.904 107.850 C 48.903 108.415,47.933 108.961,47.750 109.065 C 47.197 109.376,45.112 110.787,44.667 111.152 C 43.942 111.745,44.695 111.586,48.436 110.355 C 50.350 109.725,52.217 109.127,52.583 109.026 C 56.113 108.054,58.563 107.545,63.500 106.753 C 72.038 105.385,84.316 105.951,91.917 108.064 C 92.375 108.191,93.462 108.488,94.333 108.723 C 98.332 109.804,99.834 110.227,100.917 110.577 C 101.558 110.785,102.871 111.199,103.833 111.496 C 105.845 112.119,107.998 112.839,111.083 113.922 C 112.275 114.340,113.587 114.799,114.000 114.942 C 115.734 115.542,120.300 117.355,121.963 118.104 C 122.447 118.322,122.876 118.500,122.918 118.500 C 122.960 118.500,123.614 118.790,124.372 119.145 C 125.130 119.499,126.125 119.958,126.583 120.163 C 127.042 120.369,128.531 121.091,129.893 121.768 C 131.254 122.444,132.436 122.956,132.518 122.906 C 132.604 122.853,132.667 115.458,132.667 105.409 L 132.667 88.004 127.542 84.607 C 121.354 80.507,121.606 80.651,121.434 81.097 " stroke="none" fill="#e3701e" fill-rule="evenodd"></path></g></svg>