<svg id="svg" version="1.1" xmlns="http://www.w3.org/2000/svg" xmlns:xlink="http://www.w3.org/1999/xlink" width="400" height="312.5" viewBox="0, 0, 400,312.5"><g id="svgg"><path id="path0" d="M185.313 67.692 C 177.148 73.960,145.404 98.242,114.769 121.653 L 59.069 164.219 59.066 225.235 L 59.063 286.252 61.779 284.031 C 84.387 265.551,125.944 247.071,161.563 239.658 C 195.870 232.518,246.455 236.358,291.641 249.533 C 293.874 250.185,293.615 250.010,287.109 246.469 C 260.527 232.001,231.181 222.433,203.125 219.087 C 166.673 214.738,121.319 222.192,91.921 237.363 C 89.110 238.813,86.754 240.000,86.686 240.000 C 86.618 240.000,86.563 226.323,86.563 209.608 L 86.563 179.215 111.474 159.686 C 155.012 125.554,196.992 92.672,198.184 91.767 L 199.337 90.892 258.028 138.021 C 290.308 163.942,324.805 191.651,334.688 199.596 L 352.656 214.042 376.239 214.052 C 396.243 214.061,399.752 213.997,399.364 213.634 C 397.583 211.964,200.849 56.255,200.544 56.274 C 200.331 56.287,193.477 61.425,185.313 67.692 " stroke="none" fill="#003d7e" fill-rule="evenodd"></path><path id="path1" d="M171.055 25.213 C 153.373 39.076,107.688 74.884,69.531 104.786 C 31.375 134.687,0.098 159.203,0.026 159.264 C -0.046 159.325,9.939 159.374,22.214 159.372 L 44.531 159.369 48.750 156.028 C 80.776 130.659,200.183 36.473,200.445 36.372 C 200.640 36.297,211.974 45.263,225.634 56.296 C 239.293 67.328,269.031 91.333,291.719 109.639 C 314.406 127.945,334.762 144.384,336.953 146.169 L 340.938 149.414 340.937 131.348 L 340.936 113.281 319.296 95.479 C 307.394 85.688,277.055 60.740,251.875 40.039 C 226.695 19.338,205.443 1.863,204.649 1.204 L 203.203 0.007 171.055 25.213 M170.313 151.250 L 170.313 163.125 182.813 163.125 L 195.313 163.125 195.313 151.250 L 195.313 139.375 182.813 139.375 L 170.313 139.375 170.313 151.250 M205.313 151.250 L 205.313 163.125 217.813 163.125 L 230.313 163.125 230.313 151.250 L 230.313 139.375 217.813 139.375 L 205.313 139.375 205.313 151.250 M170.313 184.375 L 170.313 196.250 182.813 196.250 L 195.313 196.250 195.313 184.375 L 195.313 172.500 182.813 172.500 L 170.313 172.500 170.313 184.375 M205.313 184.375 L 205.313 196.250 217.813 196.250 L 230.313 196.250 230.313 184.375 L 230.313 172.500 217.813 172.500 L 205.313 172.500 205.313 184.375 M310.625 235.175 L 310.625 271.263 308.984 270.303 C 289.872 259.125,264.284 251.912,231.875 248.565 C 189.387 244.177,144.992 255.237,108.723 279.245 C 102.334 283.474,102.220 283.731,107.723 281.497 C 140.975 267.997,181.824 263.293,216.875 268.925 C 247.373 273.826,302.441 292.581,334.329 308.927 C 337.827 310.720,340.745 312.188,340.813 312.188 C 340.882 312.188,340.938 291.230,340.938 265.615 L 340.938 219.042 334.609 214.885 C 331.129 212.598,324.309 208.109,319.453 204.907 L 310.625 199.087 310.625 235.175 " stroke="none" fill="#e3701e" fill-rule="evenodd"></path></g></svg>